<svg width="194" height="53" viewBox="0 0 194 53" fill="none" xmlns="http://www.w3.org/2000/svg">
<path d="M190.04 36.2918C189.705 36.3168 189.62 36.5218 189.48 36.6518C188.921 37.183 188.25 37.5828 187.517 37.8218C186.784 38.0609 186.007 38.1332 185.242 38.0335C184.477 37.9339 183.745 37.6647 183.097 37.2458C182.45 36.8268 181.904 36.2686 181.5 35.6118C180.59 34.1396 180.119 32.4376 180.145 30.7068C180.105 27.7068 180.105 24.7068 180.145 21.7068C180.125 20.223 180.422 18.752 181.015 17.3918C181.312 16.6902 181.758 16.0613 182.322 15.5485C182.885 15.0358 183.553 14.6514 184.28 14.4218C186.002 13.8594 187.858 13.8594 189.58 14.4218C190.29 14.6397 190.943 15.0092 191.496 15.5047C192.048 16.0003 192.487 16.6101 192.78 17.2918C193.56 18.9718 193.615 20.7668 193.61 22.5718C193.61 22.9568 193.47 23.1568 193.05 23.1518C191.935 23.1518 190.815 23.1518 189.695 23.1518C189.195 23.1518 189.115 22.8718 189.12 22.4668C189.16 21.6314 189.118 20.794 188.995 19.9668C188.936 19.5724 188.835 19.1852 188.695 18.8118C188.551 18.4825 188.315 18.2013 188.017 18.0017C187.718 17.8021 187.368 17.6924 187.008 17.6855C186.649 17.6787 186.295 17.775 185.989 17.9631C185.682 18.1512 185.436 18.4232 185.28 18.7468C185.023 19.2467 184.888 19.7999 184.885 20.3618C184.885 24.1552 184.885 27.9518 184.885 31.7518C184.874 32.3954 185.047 33.0287 185.385 33.5768C185.545 33.8456 185.771 34.0687 186.042 34.2248C186.313 34.3809 186.62 34.4647 186.933 34.4682C187.245 34.4717 187.554 34.3948 187.828 34.2448C188.103 34.0949 188.334 33.8769 188.5 33.6118C189.295 32.3168 189.11 30.8368 189.095 29.4068C189.095 29.1118 188.785 29.0918 188.535 29.0918C188.095 29.0918 187.655 29.0568 187.22 29.0918C186.565 29.1518 186.38 28.8468 186.42 28.2468C186.455 27.6874 186.455 27.1263 186.42 26.5668C186.38 25.9768 186.54 25.7018 187.205 25.7118C189.165 25.7468 191.125 25.7368 193.08 25.7118C193.58 25.7118 193.795 25.8418 193.795 26.3818C193.775 29.8952 193.775 33.4118 193.795 36.9318C193.795 37.4718 193.585 37.6368 193.09 37.6018C192.73 37.5718 192.37 37.6018 192.01 37.6018C190.555 37.6118 190.555 37.6118 190.04 36.2918Z" fill="#E70000"/>
<path d="M131.345 25.5418V26.8468C131.345 30.1201 131.345 33.3968 131.345 36.6768C131.345 37.5768 131.345 37.5818 130.41 37.5918C129.65 37.5918 128.91 37.5918 128.13 37.5918C127.54 37.6218 127.215 37.4618 127.31 36.8018C127.325 36.562 127.325 36.3216 127.31 36.0818V15.9518C127.31 15.6718 127.31 15.3918 127.31 15.1118C127.275 14.6618 127.45 14.4568 127.92 14.4718C128.599 14.5093 129.281 14.5093 129.96 14.4718C130.545 14.4268 130.8 14.6868 131.01 15.2018C132.01 17.6768 133.065 20.1368 134.105 22.6018C134.552 23.7295 135.081 24.8225 135.69 25.8718C135.69 25.5868 135.735 25.3018 135.735 25.0168C135.735 21.8168 135.735 18.6201 135.735 15.4268C135.735 14.5018 135.735 14.4968 136.635 14.4868C137.35 14.4868 138.075 14.5118 138.79 14.4868C139.385 14.4568 139.675 14.6168 139.62 15.2818C139.565 15.9468 139.62 16.5568 139.62 17.1968V36.2568C139.62 36.5368 139.62 36.8168 139.62 37.0968C139.62 37.3768 139.505 37.6268 139.12 37.5968H139C136.435 37.8068 136.435 37.8068 135.5 35.4218C134.37 32.5618 133.243 29.7035 132.12 26.8468C131.945 26.4068 131.76 25.9768 131.58 25.5418H131.345Z" fill="#E70000"/>
<path d="M173.635 25.8318V24.4168C173.635 21.3868 173.635 18.3518 173.635 15.3168C173.635 14.7268 173.755 14.4318 174.415 14.4668C175.255 14.5118 176.095 14.4968 176.915 14.4668C177.415 14.4668 177.565 14.6618 177.52 15.1068C177.518 15.1468 177.518 15.1869 177.52 15.2268C177.52 22.4135 177.52 29.6002 177.52 36.7868C177.52 37.3918 177.36 37.6618 176.72 37.5968C175.93 37.5218 175.02 37.8568 174.37 37.4618C173.72 37.0668 173.7 36.1518 173.42 35.4618C172.235 32.5018 171.08 29.5268 169.92 26.5618C169.822 26.1173 169.592 25.7128 169.26 25.4018V26.5318C169.26 29.8885 169.26 33.2418 169.26 36.5918C169.26 37.5918 169.26 37.5918 168.3 37.5918C167.465 37.5918 166.625 37.5918 165.8 37.5918C165.4 37.5918 165.21 37.4418 165.24 37.0268C165.24 36.7918 165.24 36.5268 165.24 36.3118V15.7118C165.24 15.5118 165.24 15.3068 165.24 15.1118C165.195 14.6568 165.38 14.4968 165.845 14.4618C168.535 14.2518 168.535 14.2368 169.575 16.7218C170.69 19.3668 171.795 22.0168 172.91 24.6618C173.075 25.0618 173.26 25.4518 173.41 25.8468L173.635 25.8318Z" fill="#E70000"/>
<path d="M107.655 27.2418C108.138 24.3318 108.623 21.4202 109.11 18.5068C109.29 17.4068 109.475 16.3018 109.61 15.1968C109.685 14.6668 109.905 14.4368 110.47 14.4668C111.655 14.5318 112.85 14.4068 114.125 14.5568C113.77 16.4018 113.425 18.1918 113.07 19.9818L109.815 36.4168C109.765 36.6518 109.71 36.8868 109.67 37.1218C109.671 37.1933 109.656 37.2641 109.627 37.3295C109.598 37.3948 109.555 37.4531 109.501 37.5005C109.448 37.5479 109.385 37.5833 109.316 37.6042C109.248 37.6251 109.176 37.6311 109.105 37.6218C107.985 37.6218 106.87 37.6218 105.75 37.6218C105.145 37.6218 105.18 37.1668 105.11 36.8068C104.685 34.5718 104.275 32.3318 103.865 30.0968L101.225 15.7368C101.16 15.3868 101.125 15.0268 101.05 14.5118H105.105C105.5 14.5118 105.51 14.8068 105.55 15.0868C105.765 16.5468 105.995 18.0068 106.205 19.4668C106.555 21.8768 106.895 24.2868 107.245 26.6968C107.287 26.8916 107.34 27.0836 107.405 27.2718C107.6 27.4568 107.525 27.6768 107.49 27.8818C107.605 27.6718 107.5 27.4218 107.655 27.2418Z" fill="#E70000"/>
<path d="M115.815 26.0568C115.815 22.5068 115.815 18.9535 115.815 15.3968C115.815 14.4968 115.815 14.4818 116.735 14.4818C119.372 14.4818 122.007 14.4818 124.64 14.4818C125.46 14.4818 125.465 14.4818 125.48 15.3518C125.48 15.9518 125.48 16.5518 125.48 17.1468C125.48 17.5718 125.3 17.7068 124.905 17.7018C123.705 17.7018 122.51 17.7018 121.31 17.7018C120.75 17.7018 120.53 17.8618 120.54 18.4468C120.54 20.0418 120.57 21.6418 120.54 23.2368C120.54 23.8318 120.745 24.0018 121.305 23.9718C121.98 23.9318 122.665 23.9718 123.34 23.9718C123.84 23.9468 124.06 24.1668 124.025 24.6718C123.97 25.5018 124.345 26.5268 123.875 27.1118C123.405 27.6968 122.375 27.2668 121.595 27.3018C120.565 27.3518 120.56 27.3018 120.555 28.3618C120.555 30.1168 120.555 31.8618 120.555 33.6318C120.555 34.2618 120.765 34.4618 121.39 34.4418C122.545 34.3968 123.705 34.4418 124.86 34.4418C125.305 34.4418 125.52 34.5718 125.5 35.0468C125.475 35.7268 125.5 36.4068 125.5 37.0818C125.5 37.4968 125.335 37.6418 124.935 37.6418C122.1 37.6418 119.265 37.6418 116.435 37.6418C115.715 37.6418 115.835 37.1768 115.835 36.7568V26.0568H115.815Z" fill="#E70000"/>
<path d="M60.7249 25.9718C60.7249 22.4552 60.7249 18.9385 60.7249 15.4218C60.7249 14.5018 60.7249 14.4818 61.6349 14.4818C64.2683 14.4818 66.9049 14.4818 69.5449 14.4818C70.4299 14.4818 70.4549 14.4818 70.4399 15.4318C70.4399 16.1368 70.7449 17.0268 70.2899 17.5118C69.8349 17.9968 68.9299 17.6568 68.2249 17.6918C67.5199 17.7268 66.8649 17.6918 66.1899 17.6918C65.6899 17.6918 65.4499 17.7918 65.4549 18.3518C65.4849 20.0318 65.4549 21.7068 65.4549 23.3868C65.4549 23.8018 65.6199 23.9568 66.0199 23.9518C66.7399 23.9518 67.4599 23.9818 68.1749 23.9518C68.8899 23.9218 69.0199 24.1918 68.9849 24.7918C68.9475 25.3512 68.9475 25.9124 68.9849 26.4718C69.0299 27.0768 68.8349 27.3518 68.1849 27.3068C67.5349 27.2618 66.9049 27.3318 66.2699 27.3068C65.6349 27.2818 65.4349 27.4918 65.4449 28.1218C65.4799 29.9968 65.4449 31.8768 65.4449 33.7518C65.4449 34.8318 65.4449 35.9118 65.4449 36.9918C65.4449 37.4368 65.3149 37.6418 64.8399 37.6368C63.6799 37.6368 62.5199 37.6118 61.3399 37.6368C60.7999 37.6368 60.6649 37.4118 60.6749 36.9168C60.6749 35.2368 60.6749 33.5618 60.6749 31.8818L60.7249 25.9718Z" fill="#E70000"/>
<path d="M162.335 26.0468C162.335 29.5668 162.335 33.0835 162.335 36.5968C162.335 37.5968 162.335 37.5968 161.375 37.5968C160.415 37.5968 159.535 37.5968 158.615 37.5968C157.615 37.5968 157.615 37.5968 157.615 36.5218C157.615 34.1885 157.615 31.8701 157.615 29.5668C157.615 24.9001 157.615 20.2335 157.615 15.5668C157.615 14.5218 157.615 14.5168 158.65 14.5068H161.15C162.48 14.5068 162.33 14.4618 162.33 15.6468C162.34 19.1068 162.342 22.5735 162.335 26.0468Z" fill="#E70000"/>
<path d="M107.655 27.2418C107.667 27.3197 107.667 27.399 107.655 27.4768C107.655 27.6018 107.695 27.8018 107.48 27.7918C107.44 27.7918 107.39 27.5918 107.37 27.4818C107.358 27.4056 107.358 27.328 107.37 27.2518C107.465 27.2413 107.56 27.238 107.655 27.2418Z" fill="#E70000"/>
<path d="M155 21.0168C154.986 20.4981 154.943 19.9805 154.87 19.4668C154.53 16.7518 153.125 15.2518 150.42 14.7368C148.09 14.2918 145.73 14.5318 143.38 14.4818C142.49 14.4818 142.48 14.4818 142.475 15.4218C142.475 18.9718 142.475 22.5235 142.475 26.0768C142.475 29.6301 142.475 33.1801 142.475 36.7268C142.475 37.5718 142.475 37.5918 143.335 37.5918C145.17 37.5918 147.01 37.6368 148.835 37.5518C152.9 37.3568 154.69 35.6068 154.935 31.5518C155.17 28.0418 155.04 24.5268 155 21.0168ZM150.27 33.0168C150.105 33.9318 149.585 34.2568 148.27 34.3018C147.43 34.3318 147.39 34.3018 147.39 33.4718C147.39 30.9718 147.39 28.5168 147.39 26.0418C147.39 23.5668 147.39 21.0918 147.39 18.6118C147.39 17.8168 147.39 17.8168 148.19 17.8568C149.83 17.9418 150.295 18.4268 150.295 20.0768C150.295 24.0768 150.295 28.0768 150.295 32.0768C150.319 32.3864 150.318 32.6975 150.29 33.0068L150.27 33.0168Z" fill="#E70000"/>
<path d="M99.745 26.3568C99.745 24.6618 99.745 23.3068 99.745 21.9518C99.7528 20.7118 99.5724 19.4778 99.21 18.2918C98.6 16.3468 97.395 14.9418 95.39 14.3418C94.0795 13.9671 92.6999 13.902 91.36 14.1518C90.2834 14.2898 89.2716 14.7432 88.4522 15.455C87.6327 16.1668 87.0422 17.1051 86.755 18.1518C86.5191 18.8309 86.3663 19.536 86.3 20.2518C86.08 23.8745 86.055 27.5065 86.225 31.1318C86.2427 31.5304 86.2828 31.9277 86.345 32.3218C86.785 35.4268 88.47 37.3668 91.265 37.9068C92.4439 38.1335 93.6565 38.1199 94.83 37.8668C95.7565 37.692 96.6225 37.282 97.3448 36.6761C98.0672 36.0702 98.6216 35.2888 98.955 34.4068C99.2442 33.707 99.449 32.9752 99.565 32.2268C99.9 30.1668 99.66 28.1118 99.745 26.3568ZM94.995 31.3568C95.0291 32.0422 94.9059 32.7263 94.635 33.3568C94.4941 33.6886 94.2581 33.9713 93.9567 34.1691C93.6553 34.3669 93.3021 34.4711 92.9417 34.4684C92.5812 34.4657 92.2296 34.3564 91.9312 34.1541C91.6328 33.9518 91.401 33.6657 91.265 33.3318C90.998 32.6997 90.8684 32.0179 90.885 31.3318C90.885 27.8552 90.885 24.3802 90.885 20.9068C90.876 20.185 91.0138 19.4688 91.29 18.8018C91.4064 18.4798 91.618 18.2008 91.8966 18.0017C92.1751 17.8026 92.5076 17.6928 92.85 17.6868C93.212 17.6548 93.5749 17.7369 93.8879 17.9216C94.2009 18.1063 94.4481 18.3844 94.595 18.7168C94.8968 19.3722 95.0341 20.0914 94.995 20.8118C94.995 22.5718 94.995 24.3118 94.995 26.0868V31.3568Z" fill="#E70000"/>
<path d="M84.5 36.4568C83.5 33.3818 82.5 30.3018 81.5 27.2368C81.33 26.7368 81.29 26.4018 81.88 26.0918C82.5144 25.7471 83.0576 25.2561 83.4646 24.6597C83.8715 24.0632 84.1305 23.3783 84.22 22.6618C84.3612 21.8751 84.4182 21.0756 84.39 20.2768C84.325 17.1918 82.835 15.3818 79.785 14.7518C77.34 14.2518 74.85 14.5568 72.38 14.4818C72.025 14.4818 71.88 14.6618 71.905 14.9818C71.905 15.2168 71.905 15.4818 71.905 15.6968V36.3068C71.905 36.5468 71.905 36.8068 71.905 37.0268C71.875 37.4468 72.08 37.5818 72.48 37.5768C73.555 37.5768 74.635 37.5768 75.715 37.5768C76.59 37.5768 76.605 37.5768 76.61 36.6368C76.61 33.8818 76.61 31.1368 76.61 28.3668C76.61 28.1268 76.61 27.8668 76.61 27.6518C76.61 27.4368 76.52 27.0468 76.93 26.9918C77.34 26.9368 77.43 27.2768 77.5 27.5968C77.57 27.9168 77.64 28.1368 77.71 28.4068C78.4 31.1968 79.0933 33.9835 79.79 36.7668C79.885 37.1418 79.86 37.5868 80.455 37.5818C81.88 37.5818 83.31 37.5818 84.735 37.5818C84.7401 37.1941 84.6598 36.8101 84.5 36.4568ZM79.425 22.7018C79.3659 22.9555 79.2559 23.1945 79.1017 23.4045C78.9475 23.6144 78.7523 23.7908 78.5279 23.9231C78.3035 24.0554 78.0546 24.1408 77.7963 24.1741C77.538 24.2074 77.2756 24.1879 77.025 24.1168C76.645 24.0518 76.61 23.8168 76.605 23.5318V20.9068C76.605 20.1118 76.605 19.3168 76.605 18.5268C76.605 18.0568 76.785 17.9268 77.235 17.9018C78.765 17.8218 79.345 18.2468 79.6 19.7618C79.7924 20.7408 79.7322 21.7526 79.425 22.7018Z" fill="#E70000"/>
<path d="M51.87 23.5818L51.8 23.6518C51.8302 23.6365 51.8547 23.612 51.87 23.5818Z" fill="#E70000"/>
<path d="M58.895 36.4568C57.395 29.4568 55.895 22.4718 54.395 15.5018C54.18 14.5018 54.175 14.5018 53.185 14.5018H51.375C49.97 14.5018 49.975 14.5018 49.69 15.8268C48.5 21.3268 47.31 26.8268 46.12 32.3268C45.75 34.0168 45.395 35.7318 45 37.6118C46.47 37.6118 47.745 37.5868 49 37.6118C49.5 37.6118 49.705 37.3918 49.775 36.9368C49.88 36.2268 50.01 35.5168 50.135 34.8118C50.525 32.6268 50.53 32.6568 52.715 32.6818C53.385 32.6818 53.61 32.9368 53.715 33.5568C53.89 34.7018 54.15 35.8318 54.355 36.9718C54.43 37.3618 54.53 37.6218 55.025 37.6068C56.335 37.5768 57.645 37.6068 58.98 37.6068C59.0334 37.2218 59.0044 36.8298 58.895 36.4568ZM52.895 29.7168C52.3404 29.7468 51.7846 29.7468 51.23 29.7168C50.895 29.7168 50.925 29.4368 50.965 29.1868C51.245 27.3435 51.5233 25.4985 51.8 23.6518C51.7296 23.07 51.8433 22.4808 52.125 21.9668C52.2847 22.3471 52.3383 22.7635 52.28 23.1718C52.5733 25.1718 52.8667 27.1718 53.16 29.1718C53.195 29.4268 53.23 29.7018 52.895 29.7168Z" fill="#E70000"/>
<path d="M24.7591 42.5817C24.7289 42.4969 24.7136 42.4075 24.714 42.3175C24.5777 41.2965 24.1416 40.4306 23.346 39.7691C22.8732 39.3791 22.3396 39.0804 21.6959 39.0458C21.3098 39.0151 20.9234 39.1013 20.5868 39.2932C20.5175 39.3401 20.436 39.3656 20.3523 39.3666C20.2686 39.3675 20.1865 39.3438 20.1162 39.2984C19.9495 39.2041 19.7713 39.1286 19.6035 39.0332C18.0311 38.1463 16.3538 37.5435 14.6293 37.0487C13.5431 36.738 12.4356 36.5071 11.3156 36.3579C11.2656 36.3513 11.2152 36.3478 11.1647 36.3474C11.0557 36.3493 10.9475 36.3289 10.8468 36.2875C10.746 36.246 10.6547 36.1844 10.5787 36.1063C10.2418 35.7781 9.82748 35.5401 9.37418 35.4144C9.26935 35.3861 9.15823 35.3998 9.03034 35.3159C9.3862 35.2372 9.74639 35.1794 10.109 35.1429C10.9781 35.0381 11.8461 35.0842 12.7162 35.1555C14.7614 35.3232 16.7102 35.8767 18.6234 36.5812C19.7996 37.0227 20.927 37.5847 21.9874 38.2585C22.8384 38.7978 23.5817 39.4906 24.1794 40.3016C24.214 40.3488 24.2496 40.3949 24.2842 40.4411C24.2842 40.4411 24.2999 40.4411 24.3083 40.4411C24.3471 40.4086 24.3324 40.3656 24.3219 40.3289C24.0892 39.4724 23.8429 38.6254 23.3659 37.858C22.7702 36.9118 21.9618 36.1178 21.0051 35.5392C19.7314 34.7488 18.3372 34.2739 16.8874 33.9353C15.843 33.6992 14.785 33.528 13.7194 33.4227C12.3199 33.2728 10.9162 33.1941 9.51151 33.1176C9.46137 33.1124 9.41095 33.1103 9.36055 33.1113C8.66553 33.1533 7.9726 33.0453 7.27757 33.0715C7.10775 33.0788 6.93687 33.0715 6.85301 32.8817C6.80601 32.7875 6.78668 32.6818 6.79725 32.577C6.80783 32.4721 6.84788 32.3724 6.91276 32.2894C6.98767 32.197 7.07901 32.1192 7.18218 32.0599C7.69875 31.7436 8.28443 31.5576 8.88882 31.5179C10.4247 31.3815 11.9686 31.3597 13.5076 31.4529C16.9075 31.6493 20.2421 32.4698 23.3449 33.8734C23.4435 33.9175 23.5473 33.9531 23.6468 33.9961C23.6959 34.022 23.7533 34.0274 23.8063 34.0111C23.8594 33.9948 23.9038 33.9581 23.9299 33.9091C23.9823 33.8336 24.0347 33.755 24.0787 33.6764C24.91 32.3209 25.4856 30.8459 26.0338 29.3626C26.5905 27.8551 27.1178 26.3372 27.7478 24.8549C28.1571 23.8544 28.6723 22.9006 29.2846 22.0098C29.8518 21.2099 30.509 20.5044 31.3676 20.0054C31.969 19.6547 32.6295 19.4166 33.3164 19.3031C33.9555 19.2035 34.6062 19.2035 35.2453 19.3031C35.6598 19.3612 36.0774 19.3937 36.4959 19.4006C36.8564 19.4177 37.2062 19.5286 37.5107 19.7224C37.5772 19.7589 37.6357 19.8085 37.6826 19.8681C37.9268 20.2036 38.0799 20.5652 37.9562 20.9919C37.8524 21.3754 37.6251 21.714 37.3094 21.9553C36.8628 22.2939 36.3712 22.296 35.9162 21.9668C35.6864 21.7962 35.5017 21.572 35.3784 21.3137C35.3506 21.2393 35.3001 21.1755 35.2341 21.1313C35.1681 21.0871 35.0899 21.0647 35.0105 21.0674C34.8864 21.0533 34.7633 21.0326 34.6415 21.0055C33.8109 20.9017 32.97 21.0868 32.2597 21.5297C31.7376 21.8513 31.2823 22.2706 30.9189 22.7646C30.2498 23.6771 29.7074 24.6762 29.3066 25.7344C28.7636 27.1045 28.3328 28.5135 27.8967 29.9203C27.5245 31.1185 27.1629 32.3209 26.6953 33.4845C26.478 34.021 26.233 34.5458 25.9615 35.057C25.9017 35.1702 25.8661 35.2666 25.9825 35.3662C26.5202 35.8369 26.689 36.469 26.731 37.1483C26.8253 38.661 26.4657 40.0721 25.7403 41.394C25.4854 41.8443 25.1533 42.2464 24.7591 42.5817Z" fill="#E70000"/>
<path d="M26.2015 18.0839C26.018 18.1688 25.8377 18.1573 25.6669 18.1803C23.014 18.5479 20.4101 19.2089 17.9031 20.1512C17.3874 20.3461 16.8705 20.539 16.3516 20.7235C15.8915 20.9029 15.4486 21.124 15.0287 21.384L14.7886 21.5213C14.5444 21.6649 14.45 21.754 14.2949 21.4018C14.267 21.3443 14.2233 21.2959 14.1689 21.2625C14.1145 21.2291 14.0516 21.2119 13.9877 21.2131C13.5432 21.1963 13.192 20.9804 12.8639 20.7089C12.8251 20.6764 12.7832 20.6491 12.7444 20.6166C12.5742 20.4711 12.3718 20.3683 12.154 20.3165C11.9362 20.2648 11.7091 20.2656 11.4917 20.3189C10.687 20.477 9.87283 20.582 9.05439 20.6334C8.63506 20.6648 8.21574 20.7015 7.80376 20.604C7.55428 20.5559 7.33076 20.4188 7.17478 20.2182C7.06995 20.0746 7.07833 19.9939 7.21252 19.8723C7.25654 19.8335 7.30477 19.8 7.35194 19.7675C11.2147 16.9174 15.5936 14.8437 20.2461 13.6611C21.1371 13.4326 22.0366 13.2418 22.9423 13.0772C23.327 13.0059 23.4109 13.0426 23.6269 13.376C24.2719 14.3751 24.8309 15.4272 25.2979 16.5209C25.5295 17.0754 25.7507 17.6373 26.2015 18.0839Z" fill="#E70000"/>
<path d="M27.015 19.5966C27.0653 19.5966 27.1198 19.5893 27.1649 19.5819C27.2697 19.5652 27.3389 19.5945 27.3578 19.7161C27.384 19.888 27.5171 19.9394 27.6723 19.9541C27.8902 19.967 28.1087 19.94 28.317 19.8744C28.6304 19.7831 28.9504 19.7162 29.2741 19.6742C29.4649 19.6446 29.6597 19.6524 29.8475 19.6972C30.118 19.7706 30.2197 19.9363 30.1505 20.2057C30.0981 20.3926 29.9955 20.5615 29.8538 20.6942C29.2531 21.2812 28.7363 21.9417 28.1901 22.5811C27.666 23.1902 27.1544 23.8108 26.6366 24.4261C26.5883 24.4838 26.5317 24.5362 26.4856 24.5949C26.1292 25.0331 25.6606 25.2449 25.1081 25.3392C22.4556 25.7918 19.8965 26.6813 17.5352 27.9715C17.3255 28.0847 17.1557 28.2472 16.9555 28.3657C16.2919 28.7567 15.6577 29.1938 15.0014 29.5964C14.9597 29.624 14.9146 29.6462 14.8672 29.6624C14.8517 29.669 14.8349 29.672 14.8181 29.6711C14.8012 29.6703 14.7848 29.6657 14.77 29.6576C14.7552 29.6496 14.7424 29.6383 14.7325 29.6246C14.7227 29.6109 14.7161 29.5952 14.7131 29.5786C14.6959 29.5136 14.6927 29.4457 14.7037 29.3794C14.7425 28.9601 14.8337 28.5407 15.0874 28.1979C15.5528 27.5805 15.534 26.9043 15.4124 26.2062C15.2715 25.437 14.9574 24.71 14.494 24.0802C14.4543 24.0072 14.3906 23.9502 14.3137 23.9188C14.2752 23.9009 14.2415 23.874 14.2154 23.8404C14.1894 23.8068 14.1719 23.7674 14.1643 23.7256C14.1567 23.6837 14.1592 23.6407 14.1717 23.6001C14.1843 23.5594 14.2064 23.5224 14.2362 23.4921C14.3541 23.3985 14.4804 23.316 14.6136 23.2458C15.2887 22.8736 15.9942 22.5665 16.6944 22.2488C18.4128 21.4564 20.2031 20.8301 22.0408 20.3786C23.2205 20.0963 24.4159 19.8842 25.6207 19.7434L27.0139 19.5851L27.015 19.5966Z" fill="#E70000"/>
<path d="M21.7861 11.7406C21.3459 11.8927 20.8944 12.0101 20.4359 12.0918C18.2648 12.5111 16.1997 13.2607 14.1817 14.1444C11.4572 15.3363 8.91712 16.8521 6.49344 18.5672C6.39805 18.6343 6.30475 18.7066 6.20516 18.7684C6.05735 18.8586 5.95042 18.8565 5.85083 18.7192C5.47135 18.195 5.11702 17.6562 5.02267 16.9958C4.98657 16.789 4.99364 16.5771 5.04344 16.3732C5.09323 16.1693 5.18467 15.978 5.312 15.8112C5.61964 15.4172 5.76918 14.9227 5.73132 14.4243C5.73132 14.3656 5.73132 14.3069 5.73132 14.2482C5.67157 13.2953 6.10871 12.5918 6.86873 12.0624C7.12394 11.888 7.39571 11.7391 7.68012 11.618C7.80277 11.5645 7.92543 11.5131 8.05122 11.4639C8.54997 11.2793 8.97675 10.9403 9.26935 10.4963C9.38152 10.3296 9.50627 10.1724 9.62787 10.012C9.77653 9.80752 9.97183 9.64151 10.1976 9.52773C10.4233 9.41396 10.6729 9.35571 10.9257 9.35782C10.9844 9.35782 11.0431 9.35153 11.1007 9.35782C11.953 9.40814 12.7864 9.26557 13.6167 9.12719C14.2373 9.02236 14.86 8.94584 15.4889 9.04857C15.6981 9.07215 15.9028 9.12545 16.097 9.20687C16.4565 9.37879 16.4114 9.6199 16.2018 9.79392C15.9229 10.035 15.9596 10.2405 16.3066 10.4229C17.0006 10.7898 17.6935 11.163 18.3875 11.5331C18.4395 11.56 18.4931 11.5838 18.5479 11.6043C18.8267 11.7092 18.9672 11.6526 19.0962 11.3884C19.3058 10.9575 19.5889 10.8097 20.0522 10.9366C20.4946 11.0571 20.9296 11.207 21.3626 11.3611C21.5418 11.4282 21.7138 11.5131 21.7861 11.7406Z" fill="#E70000"/>
<path d="M15.4135 31.1584C15.4396 31.1257 15.468 31.0949 15.4984 31.0661C17.7837 29.3668 20.2744 28.0826 23.0283 27.3299C23.6741 27.1538 24.3198 26.9819 24.9792 26.8645C25.0285 26.8551 25.0778 26.8477 25.127 26.8404C25.2455 26.8215 25.3084 26.8593 25.3367 26.9871C25.5305 27.7435 25.5687 28.5313 25.4489 29.3029C25.4306 29.4573 25.3718 29.6042 25.2785 29.7287C25.1851 29.8531 25.0606 29.9507 24.9174 30.0115C24.4332 30.24 23.9615 30.4941 23.5043 30.7726C23.1153 31.0105 22.9193 31.3292 22.9864 31.7968C23.0051 32.0307 23.0012 32.2659 22.9749 32.4991C22.9676 32.5785 22.9419 32.655 22.8996 32.7226C22.8574 32.7901 22.7998 32.8468 22.7317 32.8881C22.6844 32.9225 22.6285 32.9432 22.5701 32.9476C22.5118 32.9521 22.4534 32.9401 22.4014 32.9132C21.2022 32.41 19.9516 32.0746 18.6946 31.7601C18.0122 31.5871 17.314 31.5032 16.6253 31.3638C16.2427 31.2831 15.8454 31.2108 15.4135 31.1584Z" fill="#E70000"/>
<path d="M9.79982 35.8705C9.49878 35.7015 9.15964 35.612 8.81441 35.6105C8.22317 35.6021 7.73256 35.8149 7.4034 36.3254C7.17879 36.6627 7.06082 37.0597 7.06479 37.4649C7.08262 38.7072 7.61306 39.6863 8.6079 40.418C8.91408 40.6389 9.26645 40.7873 9.63838 40.852C10.4445 41.0009 11.1217 40.6507 11.4729 39.9085C11.6115 39.61 11.6831 39.2848 11.6826 38.9556C11.6008 37.596 11.0012 36.5498 9.79982 35.8705ZM10.8104 39.1202C10.6332 39.8477 9.91828 40.1371 9.2872 39.7324C9.02694 39.5779 8.81225 39.3572 8.66494 39.0928C8.51764 38.8284 8.44298 38.5297 8.44856 38.2271C8.44776 38.0928 8.46182 37.9588 8.49049 37.8277C8.51982 37.6819 8.58224 37.5448 8.67294 37.427C8.76363 37.3092 8.88018 37.2138 9.01358 37.1482C9.14699 37.0825 9.29369 37.0484 9.44237 37.0484C9.59105 37.0485 9.73773 37.0827 9.8711 37.1484C10.2263 37.3254 10.5118 37.6163 10.6821 37.9747C10.8524 38.3332 10.8975 38.7383 10.8104 39.1255V39.1202Z" fill="#E70000"/>
<path d="M24.4414 42.7211C24.4444 42.2191 24.3412 41.7221 24.1387 41.2627C23.9362 40.8033 23.6389 40.3918 23.2663 40.0553C22.9231 39.7329 22.5041 39.5021 22.0482 39.3844C21.1257 39.1338 20.2545 39.594 19.9725 40.4809C19.8413 40.8893 19.8104 41.3233 19.8824 41.7462C20.0351 42.6295 20.5043 43.427 21.2022 43.9896C21.5586 44.2844 21.985 44.4823 22.4402 44.5641C22.7999 44.6399 23.1748 44.5907 23.5027 44.4244C23.8306 44.2582 24.0919 43.9849 24.2433 43.6499C24.3829 43.3607 24.4509 43.0421 24.4414 42.7211ZM23.5724 42.8972C23.3481 43.5724 22.6667 43.8344 22.0702 43.4497C21.8058 43.2876 21.5887 43.0588 21.4406 42.7863C21.2925 42.5138 21.2186 42.2072 21.2263 41.8972C21.2292 41.6865 21.2749 41.4786 21.3605 41.286C21.4591 41.0803 21.63 40.9182 21.8405 40.8304C22.0511 40.7426 22.2865 40.7354 22.5021 40.8101C22.6673 40.8691 22.8233 40.9513 22.9654 41.0543C23.4225 41.3667 23.7831 42.263 23.5724 42.8972Z" fill="#E70000"/>
</svg>
